<svg data-v-1a45047e="" id="shape_tkUWMsqkYv" data-noselect="" viewBox="250 82 300 300" width="240" height="240"
     version="1.1" xmlns="http://www.w3.org/2000/svg"
     xmlns:xlink="http://www.w3.org/1999/xlink" class="svg-canvas"> <!----> <!---->
    <g data-v-1a45047e="" mask="">
        <g data-v-1a45047e=""
           transform="translate(288.31101800087,120) rotate(0,111.68547446835,111.6720524371) scale(1,1)" filter=""
           style="opacity: 1;">
            <g data-v-1a45047e="">
                <rect fill="rgba(0,0,0,0)" width="243.37094893671" height="243.34410487421" x="-10" y="-10"></rect>
                <svg version="1.1" id="图层_1" xmlns="http://www.w3.org/2000/svg"
                     xmlns:xlink="http://www.w3.org/1999/xlink" x="0px" y="0px" width="223.37094893671"
                     height="223.34410487421"
                     viewBox="0.012523025274276733 0.03621550649404526 197.05625915527344 197.03257751464844"
                     enable-background="new 0 0 197.07 197.07" xml:space="preserve" class="style-removed"
                     preserveAspectRatio="none" data-parent="shape_tkUWMsqkYv">
						<linearGradient id="SVGID_1_" gradientUnits="userSpaceOnUse" x1="0" y1="98.5351" x2="197.0717"
                                        y2="98.5351">
							<stop offset="0" stop-color="#009EFF"></stop>
                            <stop offset="0.1254" stop-color="#0093F8"></stop>
                            <stop offset="0.3467" stop-color="#0075E5"></stop>
                            <stop offset="0.6377" stop-color="#0045C7"></stop>
                            <stop offset="0.9842" stop-color="#00039E"></stop>
                            <stop offset="1" stop-color="#00009C"></stop>
						</linearGradient>
                    <path fill="url(#SVGID_1_)"
                          d="M118.22,175.39c0.13,1.26,0.13,2.54,0,3.8c0,0,0,0.01,0,0.02c-0.42,4.41-2.33,8.69-5.7,12.07
	c-3.37,3.37-7.65,5.27-12.06,5.69c-0.01,0-0.02,0-0.02,0c-1.28,0.13-2.58,0.13-3.85,0.01c-0.01,0-0.02-0.01-0.02-0.01
	c-4.39-0.44-8.66-2.33-12.02-5.69c-3.36-3.36-5.25-7.63-5.69-12.02c-0.13-1.31-0.13-2.63,0-3.94c0.44-4.39,2.33-8.66,5.69-12.02
	c3.36-3.36,7.62-5.26,12.01-5.69l0.01,0c1.28-0.13,2.58-0.13,3.87,0c0,0,0.01,0,0.02,0l0.01,0c4.4,0.43,8.68,2.33,12.05,5.69
	c3.37,3.37,5.28,7.66,5.7,12.07C118.22,175.38,118.22,175.39,118.22,175.39z M151.9,123.92c-3.36-3.36-7.64-5.26-12.04-5.69
	c-1.29-0.13-2.6-0.13-3.89,0c-4.39-0.43-8.67-2.33-12.04-5.7c-3.37-3.37-5.28-7.65-5.7-12.05c-0.01-0.01-0.01-0.02,0-0.03
	c0.13-1.28,0.12-2.57,0-3.85c-0.43-4.4-2.33-8.67-5.7-12.04c-3.37-3.37-7.65-5.27-12.04-5.7c-1.28-0.12-2.56-0.13-3.85,0
	c-0.01,0-0.02,0-0.02,0c-4.41-0.42-8.69-2.33-12.07-5.7c-3.37-3.37-5.27-7.65-5.7-12.05c0,0,0,0,0,0l0-0.01c0-0.01,0-0.02,0-0.02
	c0.13-1.28,0.12-2.57,0-3.85c0,0,0,0,0,0c0.43-4.39,2.33-8.67,5.7-12.04c3.36-3.36,7.64-5.26,12.04-5.69
	c1.3,0.12,2.61,0.13,3.9-0.01c0.01,0,0.01,0,0.02,0.01c4.39,0.44,8.66,2.33,12.02,5.69c3.36,3.36,5.26,7.64,5.69,12.02
	c0,0,0.01,0.01,0.01,0.02c0,0.01,0,0.02-0.01,0.03c-0.13,1.28-0.12,2.58,0,3.87c0.43,4.39,2.33,8.67,5.7,12.04
	c3.37,3.37,7.65,5.27,12.04,5.7c1.3,0.12,2.61,0.12,3.9-0.01c0.01,0,0.02,0.01,0.02,0.01c4.38-0.44,8.66-2.34,12.02-5.7
	c3.37-3.37,5.27-7.65,5.7-12.04c0.13-1.29,0.13-2.6,0-3.89c-0.43-4.39-2.33-8.67-5.7-12.04c-3.37-3.37-7.65-5.27-12.04-5.7
	c-1.29-0.13-2.6-0.13-3.89,0c-4.39-0.43-8.67-2.33-12.04-5.7c-3.37-3.37-5.27-7.65-5.7-12.04c0.13-1.29,0.13-2.6,0-3.89
	c-0.43-4.39-2.33-8.67-5.7-12.04c-3.36-3.36-7.63-5.25-12.01-5.7c0,0,0,0-0.01,0c-1.3-0.12-2.61-0.13-3.92,0
	c-4.39,0.43-8.67,2.33-12.04,5.7c-3.36,3.36-5.25,7.63-5.7,12.01l0,0.01c-0.12,1.31-0.12,2.63,0,3.94l0,0.01
	c-0.44,4.39-2.33,8.65-5.69,12.01c-3.36,3.36-7.62,5.26-12,5.7c0,0,0,0,0,0c0,0-0.01,0-0.02-0.01c-1.29-0.12-2.58-0.12-3.87,0
	c-0.02,0.01-0.03,0.01-0.04,0c-4.4,0.44-8.68,2.33-12.05,5.7c-3.37,3.37-5.27,7.65-5.7,12.04c-0.13,1.31-0.12,2.62,0,3.92
	c0,0.01,0,0.02,0,0.03c0-0.01-0.01-0.02-0.01-0.03c-0.44,4.39-2.33,8.66-5.69,12.02c-3.36,3.36-7.65,5.26-12.05,5.69
	c-1.29-0.13-2.6-0.13-3.89,0c-4.4,0.43-8.67,2.33-12.04,5.7c-3.36,3.36-5.26,7.64-5.69,12.04c-0.13,1.31-0.13,2.63,0,3.94
	c0.44,4.38,2.34,8.64,5.69,12c3.36,3.36,7.64,5.26,12.02,5.69c0.01,0,0.01,0,0.02,0.01c1.29,0.13,2.61,0.12,3.9-0.01
	c4.39,0.43,8.67,2.33,12.04,5.7c3.37,3.37,5.27,7.65,5.7,12.04c0-0.01,0-0.02,0.01-0.03c0,0.01,0,0.02,0,0.03
	c-0.13,1.31-0.13,2.62,0,3.92c0.44,4.39,2.33,8.66,5.69,12.02c3.36,3.36,7.64,5.26,12.02,5.69c0.01,0.01,0.01,0.01,0.02,0.01
	c1.29,0.12,2.61,0.12,3.9-0.01c4.4-0.43,8.67-2.33,12.04-5.69c3.37-3.37,5.27-7.65,5.7-12.04c0.13-1.28,0.13-2.58,0-3.85
	c0,0,0-0.01,0-0.02c-0.42-4.41-2.33-8.69-5.7-12.07c-3.37-3.37-7.65-5.28-12.05-5.7l-0.01,0c-0.01,0-0.02,0-0.02,0
	c-1.27-0.13-2.56-0.13-3.85,0c0,0,0,0-0.01,0c-4.39-0.43-8.67-2.33-12.04-5.7c-3.37-3.37-5.27-7.65-5.7-12.04
	c0.13-1.28,0.13-2.58,0-3.85c0-0.01,0-0.02,0-0.02c0.43-4.41,2.33-8.7,5.7-12.07c3.37-3.37,7.65-5.27,12.04-5.7
	c-0.01,0-0.01,0-0.02,0c0.01,0,0.01,0,0.02,0c1.29,0.13,2.6,0.13,3.89,0c0.01,0,0.02,0,0.03-0.01c-0.01,0-0.02,0.01-0.04,0.01
	c4.39,0.43,8.67,2.33,12.04,5.7s5.27,7.65,5.7,12.04c-0.13,1.29-0.13,2.6,0,3.89c0.43,4.39,2.33,8.67,5.7,12.04
	c3.37,3.37,7.65,5.27,12.04,5.7c1.29,0.13,2.6,0.13,3.89,0c4.39,0.43,8.67,2.33,12.04,5.7c3.36,3.36,5.25,7.62,5.69,12l0.01,0.01
	l0,0.01c-0.13,1.3-0.13,2.61,0,3.92c0.43,4.39,2.33,8.67,5.69,12.04c3.37,3.37,7.65,5.27,12.04,5.7c1.28,0.13,2.58,0.13,3.85,0
	c0.01-0.01,0.01,0,0.02,0c4.41-0.42,8.69-2.33,12.07-5.7c3.37-3.37,5.28-7.67,5.7-12.09c0.13-1.28,0.12-2.57,0-3.85
	C157.17,131.57,155.27,127.29,151.9,123.92z M196.98,96.59c-0.43-4.39-2.33-8.67-5.7-12.04c-3.36-3.36-7.64-5.26-12.04-5.69
	c-1.29-0.13-2.61-0.13-3.9-0.01c-0.01,0-0.02,0.01-0.02,0.01c-4.39,0.44-8.66,2.33-12.02,5.69c-3.36,3.36-5.25,7.62-5.69,12
	c-0.13,1.31-0.13,2.63,0,3.94c0.43,4.39,2.33,8.67,5.69,12.04c3.37,3.37,7.65,5.27,12.04,5.7c1.29,0.13,2.6,0.13,3.89,0
	c4.39-0.43,8.67-2.33,12.04-5.7c3.37-3.37,5.28-7.66,5.7-12.07c0-0.01,0-0.02,0-0.02C197.1,99.16,197.1,97.87,196.98,96.59z" stroke-width="0">
						</path>
					</svg>
            </g>
        </g>
    </g>
</svg>